<?xml version="1.0" encoding="utf-8"?>
<!-- Generator: Adobe Illustrator 24.2.3, SVG Export Plug-In . SVG Version: 6.00 Build 0)  -->
<svg version="1.1" id="Layer_1" xmlns="http://www.w3.org/2000/svg" xmlns:xlink="http://www.w3.org/1999/xlink" x="0px" y="0px"
	 viewBox="0 0 44 44" style="enable-background:new 0 0 44 44;" xml:space="preserve">
<style type="text/css">
	.st0{fill:none;}
	.st1{fill:none;stroke:#C3C3C3;stroke-width:0.5;stroke-linecap:round;stroke-linejoin:round;}
</style>
<g>
	<g id="Rectangle_5">
		<path class="st0" d="M12,0h20c6.6,0,12,5.4,12,12v20c0,6.6-5.4,12-12,12H12C5.4,44,0,38.6,0,32V12C0,5.4,5.4,0,12,0z"/>
		<path class="st1" d="M12,0.2h20c6.5,0,11.8,5.3,11.8,11.8v20c0,6.5-5.3,11.8-11.8,11.8H12C5.5,43.8,0.2,38.5,0.2,32V12
			C0.2,5.5,5.5,0.2,12,0.2z"/>
	</g>
	<g id="e85byl.tif">
		<g>
			<g>
				<path d="M18.5,32.7c-0.2,0-0.4,0-0.6,0c-0.2,0-0.4-0.1-0.6-0.2c-0.7-0.3-1.3-0.7-1.8-1.3c-1.5-1.7-2.7-3.6-3.4-5.8
					c-0.6-2-1-4-0.6-6.1c0.2-1.5,0.8-2.9,1.9-4c1.7-1.7,3.7-2.4,6.1-1.6c0.7,0.2,1.3,0.4,1.9,0.7c0.5,0.2,0.9,0.2,1.4,0
					c0.4-0.2,0.8-0.3,1.2-0.4c0.6-0.2,1.3-0.4,1.9-0.5c0.8-0.1,1.5-0.1,2.3,0.1c1.5,0.3,2.7,1,3.6,2.2C32,15.9,32,16,31.9,16
					c-1.6,1-2.6,2.5-2.7,4.5c0,1.3,0.3,2.4,1,3.4c0.6,0.9,1.5,1.5,2.5,2c0,0,0,0,0,0c0,0,0,0.1-0.1,0.1c-0.5,1.4-1.1,2.6-2,3.8
					c-0.5,0.7-1,1.3-1.6,1.9c-0.8,0.6-1.6,1-2.6,0.8c-0.6-0.1-1.2-0.3-1.7-0.5c-1-0.4-2-0.5-3-0.3c-0.3,0.1-0.6,0.1-0.9,0.2
					C20,32.3,19.3,32.6,18.5,32.7z"/>
				<path d="M22,12.9c0-1.4,0.6-2.5,1.5-3.5c1-1.1,2.2-1.7,3.6-1.9c0.2,0,0.2,0,0.2,0.2c0.1,1.5-0.5,2.8-1.4,3.9
					c-0.6,0.7-1.3,1.3-2.2,1.6c-0.5,0.2-1,0.3-1.5,0.2c-0.1,0-0.2,0-0.2-0.2C22.1,13.1,22.1,13,22,12.9z"/>
			</g>
		</g>
	</g>
</g>
</svg>
