<svg xmlns="http://www.w3.org/2000/svg" xmlns:xlink="http://www.w3.org/1999/xlink" viewBox="0 0 44.1 44.1"><defs><style>.cls-1,.cls-2,.cls-8{fill:none;}.cls-2{stroke:#c3c3c3;stroke-linecap:round;stroke-linejoin:round;stroke-width:0.5px;}.cls-3{fill:url(#linear-gradient);}.cls-4{fill:url(#linear-gradient-2);}.cls-5{fill:url(#linear-gradient-3);}.cls-6{fill:#000002;}.cls-7{fill:#4d4d50;opacity:0.42;}.cls-8{stroke-miterlimit:10;stroke-width:1.06px;stroke:url(#linear-gradient-4);}.cls-9{fill:#fff;}</style><linearGradient id="linear-gradient" x1="21.37" y1="15.61" x2="21.37" y2="3.07" gradientUnits="userSpaceOnUse"><stop offset="0" stop-color="#e93b43"/><stop offset="1" stop-color="#f98a8c"/></linearGradient><linearGradient id="linear-gradient-2" x1="-75.96" y1="1302.76" x2="-75.96" y2="1290.22" gradientTransform="translate(-54.59 1331.19) rotate(180)" xlink:href="#linear-gradient"/><linearGradient id="linear-gradient-3" x1="30.42" y1="20.19" x2="30.42" y2="16.01" gradientUnits="userSpaceOnUse"><stop offset="0" stop-color="#b06951"/><stop offset="0.2" stop-color="#daaa87"/><stop offset="0.88" stop-color="#dbac88"/><stop offset="1" stop-color="#b06951"/></linearGradient><linearGradient id="linear-gradient-4" x1="21.35" y1="32.47" x2="21.35" y2="11.9" gradientUnits="userSpaceOnUse"><stop offset="0" stop-color="#d2a696"/><stop offset="0.2" stop-color="#fceadc"/><stop offset="0.88" stop-color="#fdecde"/><stop offset="1" stop-color="#d2a696"/></linearGradient></defs><g id="Layer_2" data-name="Layer 2"><g id="Layer_1-2" data-name="Layer 1"><g id="Rectangle_5" data-name="Rectangle 5"><path class="cls-1" d="M12.05.05h20a12,12,0,0,1,12,12v20a12,12,0,0,1-12,12h-20a12,12,0,0,1-12-12v-20A12,12,0,0,1,12.05.05Z"/><path class="cls-2" d="M12.05.25h20a11.82,11.82,0,0,1,11.8,11.8v20a11.82,11.82,0,0,1-11.8,11.8h-20A11.82,11.82,0,0,1,.25,32.05v-20A11.82,11.82,0,0,1,12.05.25Z"/></g><path class="cls-3" d="M28,12.31c-1.51-1.07-1.54-4.3-1.63-5.87S23.19,5,23.19,5L21.72,5H21L19.56,5s-3-.15-3.13,1.42-.13,4.8-1.63,5.87L21,14.52v0a.58.58,0,0,0,0,.19l.32-.11.33.11a1.11,1.11,0,0,0,0-.19v0Z"/><path class="cls-4" d="M14.8,31.73c1.5,1.07,1.53,4.31,1.63,5.88S19.56,39,19.56,39l1.47,0h.69l1.47,0s3,.16,3.13-1.41.12-4.81,1.63-5.88l-6.23-2.2v-.05a1.11,1.11,0,0,0,0-.19l-.33.12-.32-.12a.58.58,0,0,0,0,.19v.05Z"/><rect class="cls-5" x="29.5" y="16.01" width="1.83" height="4.18" rx="0.91"/><rect class="cls-6" x="12.77" y="12.43" width="17.15" height="19.5" rx="3.86"/><path class="cls-7" d="M26.07,12.43H16.63a3.86,3.86,0,0,0-3.86,3.86V28.08a3.85,3.85,0,0,0,3.86,3.85h9.44a3.85,3.85,0,0,0,3.85-3.85V16.29A3.86,3.86,0,0,0,26.07,12.43ZM28.21,26.9A3.08,3.08,0,0,1,25.13,30H17.57a3.09,3.09,0,0,1-3.09-3.09V17.46a3.09,3.09,0,0,1,3.09-3.09h7.56a3.08,3.08,0,0,1,3.08,3.09Z"/><rect class="cls-8" x="12.77" y="12.43" width="17.15" height="19.5" rx="3.86"/><g id="OCXAAq.tif"><path class="cls-9" d="M18.51,21.67c0-1.68.77-2.29,2.27-2a1.4,1.4,0,0,0,.86-.08,1.4,1.4,0,0,1,1.1,0c.44.2.84.35.3.95a1.12,1.12,0,0,0,.11,1.67.69.69,0,0,1,.12,1.09c-.33.48-.61,1.11-1.35.89a2.12,2.12,0,0,0-1.49,0,.81.81,0,0,1-.94-.29A3.66,3.66,0,0,1,18.51,21.67Z"/><path class="cls-9" d="M22.05,18.06c.25,0,.26.13.23.31a1.32,1.32,0,0,1-1,1.07c-.22.07-.28-.06-.29-.26C21,18.77,21.67,18.05,22.05,18.06Z"/></g></g></g></svg>