<svg xmlns="http://www.w3.org/2000/svg" xmlns:xlink="http://www.w3.org/1999/xlink" viewBox="0 0 44.1 44.1"><defs><style>.cls-1,.cls-2,.cls-4{fill:none;}.cls-2{stroke:#c3c3c3;stroke-linecap:round;stroke-linejoin:round;stroke-width:0.5px;}.cls-3{fill:url(#linear-gradient);}.cls-4{stroke-miterlimit:10;stroke-width:0.46px;stroke:url(#linear-gradient-2);}.cls-5{fill:#7a7272;}.cls-6{fill:#71a6bd;}.cls-7{fill:#fff3f3;opacity:0.33;}.cls-7,.cls-8{isolation:isolate;}.cls-8{opacity:0.42;}.cls-9{opacity:0.23;}.cls-10{fill:url(#linear-gradient-3);}.cls-11{fill:url(#linear-gradient-4);}</style><linearGradient id="linear-gradient" x1="9.5" y1="-77.35" x2="38.01" y2="-105.87" gradientTransform="matrix(1, 0, 0, -1, 0, -66.99)" gradientUnits="userSpaceOnUse"><stop offset="0" stop-color="#427387"/><stop offset="0.04" stop-color="#578397"/><stop offset="0.14" stop-color="#83a6b8"/><stop offset="0.23" stop-color="#9cbbcd"/><stop offset="0.31" stop-color="#abc7d9"/><stop offset="0.37" stop-color="#afcbdd"/><stop offset="0.48" stop-color="#9fbecf"/><stop offset="0.7" stop-color="#729aac"/><stop offset="0.8" stop-color="#517f92"/></linearGradient><linearGradient id="linear-gradient-2" x1="9.48" y1="-77.23" x2="33.83" y2="-101.58" xlink:href="#linear-gradient"/><linearGradient id="linear-gradient-3" x1="22.07" y1="-87.36" x2="22.57" y2="-87.87" gradientTransform="matrix(1, 0, 0, -1, 0, -66.99)" gradientUnits="userSpaceOnUse"><stop offset="0" stop-color="#427387"/><stop offset="0.06" stop-color="#578397"/><stop offset="0.24" stop-color="#83a6b8"/><stop offset="0.4" stop-color="#9cbbcd"/><stop offset="0.55" stop-color="#abc7d9"/><stop offset="0.65" stop-color="#afcbdd"/><stop offset="0.73" stop-color="#9fbecf"/><stop offset="0.91" stop-color="#729aac"/><stop offset="1" stop-color="#517f92"/></linearGradient><linearGradient id="linear-gradient-4" x1="20.18" y1="-88.51" x2="23.59" y2="-91.92" xlink:href="#linear-gradient-3"/></defs><g id="Layer_2" data-name="Layer 2"><g id="Layer_1-2" data-name="Layer 1"><g id="Rectangle_5" data-name="Rectangle 5"><path class="cls-1" d="M12.05.05h20a12,12,0,0,1,12,12v20a12,12,0,0,1-12,12h-20a12,12,0,0,1-12-12v-20A12,12,0,0,1,12.05.05Z"/><path class="cls-2" d="M12.05.25h20a11.82,11.82,0,0,1,11.8,11.8v20a11.82,11.82,0,0,1-11.8,11.8h-20A11.82,11.82,0,0,1,.25,32.05v-20A11.82,11.82,0,0,1,12.05.25Z"/></g><path class="cls-3" d="M27.05,39.66H15.85a2.8,2.8,0,0,1-2.8-2.8v-29a2.8,2.8,0,0,1,2.8-2.8h11.3A2.8,2.8,0,0,1,30,7.86v29A2.88,2.88,0,0,1,27.05,39.66Z"/><path class="cls-4" d="M27.25,39.66H16.05a2.78,2.78,0,0,1-2.8-2.77v-29a2.78,2.78,0,0,1,2.8-2.77h11.2a2.78,2.78,0,0,1,2.8,2.77V37A2.76,2.76,0,0,1,27.25,39.66Z"/><path class="cls-5" d="M19.55,13.46H16a1.69,1.69,0,0,1-1.7-1.7v-4A1.69,1.69,0,0,1,16,6.06h3.6a1.69,1.69,0,0,1,1.7,1.7v4A1.75,1.75,0,0,1,19.55,13.46Z"/><path class="cls-6" d="M19.35,13.46h-3.6a1.69,1.69,0,0,1-1.7-1.7v-4a1.69,1.69,0,0,1,1.7-1.7h3.6a1.69,1.69,0,0,1,1.7,1.7v4A1.75,1.75,0,0,1,19.35,13.46Z"/><circle cx="16.15" cy="7.96" r="1.4"/><circle class="cls-7" cx="16.15" cy="7.96" r="0.5"/><circle cx="19.15" cy="9.86" r="1.4"/><circle class="cls-7" cx="19.15" cy="9.86" r="0.6"/><circle cx="16.15" cy="11.66" r="1.4"/><circle class="cls-7" cx="16.15" cy="11.66" r="0.5"/><path class="cls-8" d="M14.05,7.86v4a1.69,1.69,0,0,0,1.7,1.7h3.8l-5.1-6.7A1.53,1.53,0,0,0,14.05,7.86Z"/><g class="cls-9"><path d="M23,20a1.43,1.43,0,0,1-.6,1.2c-.1.1-.2.1-.4.1s-.1,0-.1-.1a1.22,1.22,0,0,1,.4-.9A2.39,2.39,0,0,1,23,20Z"/><path d="M19.65,23.16a1.7,1.7,0,0,1,.4-1.3,1.2,1.2,0,0,1,1.5-.4,1.39,1.39,0,0,0,.9,0,1.47,1.47,0,0,1,1.3.1.1.1,0,0,1,.1.1l.2.2c0,.1-.1.1-.2.2a1.28,1.28,0,0,0,.2,2c.1.1.1.1.1.2a6,6,0,0,1-.6,1.1c-.3.3-.6.4-.9.2a1.08,1.08,0,0,0-1.1,0c-.4.2-.6.1-.9-.2A3.34,3.34,0,0,1,19.65,23.16Z"/></g><path class="cls-10" d="M22.85,20a1.43,1.43,0,0,1-.6,1.2c-.1.1-.2.1-.4.1s-.1,0-.1-.1a1.22,1.22,0,0,1,.4-.9,4.88,4.88,0,0,1,.7-.3Z"/><path class="cls-11" d="M19.55,23.16a1.7,1.7,0,0,1,.4-1.3,1.2,1.2,0,0,1,1.5-.4,1.39,1.39,0,0,0,.9,0,1.47,1.47,0,0,1,1.3.1.1.1,0,0,1,.1.1l.2.2c0,.1-.1.1-.2.2a1.28,1.28,0,0,0,.2,2c.1.1.1.1.1.2a6,6,0,0,1-.6,1.1c-.3.3-.6.4-.9.2a1.08,1.08,0,0,0-1.1,0c-.4.2-.6.1-.9-.2A3.34,3.34,0,0,1,19.55,23.16Z"/></g></g></svg>